{
  "accessors": [
    {
      "bufferView": 2,
      "componentType": 5126,
      "count": 1156,
      "max": [
        92.799064636230469,
        143.332275390625,
        15.052637100219727
      ],
      "min": [
        -92.799064636230469,
        -474.47125244140625,
        -15.052637100219727
      ],
      "type": "VEC3"
    },
    {
      "bufferView": 2,
      "byteOffset": 13872,
      "componentType": 5126,
      "count": 1156,
      "max": [
        1,
        1,
        0.99990695714950562
      ],
      "min": [
        -1,
        -1,
        -0.99990695714950562
      ],
      "type": "VEC3"
    },
    {
      "bufferView": 3,
      "componentType": 5126,
      "count": 1156,
      "max": [
        0.99990582466125488,
        0.99952203035354614,
        1,
        1
      ],
      "min": [
        -0.99990534782409668,
        -0.99952197074890137,
        -1,
        -1
      ],
      "type": "VEC4"
    },
    {
      "bufferView": 1,
      "componentType": 5126,
      "count": 1156,
      "max": [
        1.1853716373443604,
        1.190035343170166
      ],
      "min": [
        -0.18537068367004395,
        -0.19003677368164062
      ],
      "type": "VEC2"
    },
    {
      "bufferView": 0,
      "componentType": 5125,
      "count": 5460,
      "max": [
        1155
      ],
      "min": [
        0
      ],
      "type": "SCALAR"
    },
    {
      "bufferView": 2,
      "byteOffset": 27744,
      "componentType": 5126,
      "count": 2059,
      "max": [
        84.905372619628906,
        133.46537780761719,
        -9.6636514663696289
      ],
      "min": [
        -84.905380249023438,
        -118.88298034667969,
        -299.98883056640625
      ],
      "type": "VEC3"
    },
    {
      "bufferView": 2,
      "byteOffset": 52452,
      "componentType": 5126,
      "count": 2059,
      "max": [
        0.99965476989746094,
        0.99934309720993042,
        0.99998211860656738
      ],
      "min": [
        -0.99965476989746094,
        -1,
        -0.99998533725738525
      ],
      "type": "VEC3"
    },
    {
      "bufferView": 3,
      "byteOffset": 18496,
      "componentType": 5126,
      "count": 2059,
      "max": [
        0.99945068359375,
        0.99994355440139771,
        0.99994337558746338,
        1
      ],
      "min": [
        -0.99924945831298828,
        -0.99963110685348511,
        -0.99913239479064941,
        -1
      ],
      "type": "VEC4"
    },
    {
      "bufferView": 1,
      "byteOffset": 9248,
      "componentType": 5126,
      "count": 2059,
      "max": [
        0.99399614334106445,
        1.023571252822876
      ],
      "min": [
        -0.1200019046664238,
        -4.8642108119167915e-09
      ],
      "type": "VEC2"
    },
    {
      "bufferView": 0,
      "byteOffset": 21840,
      "componentType": 5125,
      "count": 9369,
      "max": [
        2058
      ],
      "min": [
        0
      ],
      "type": "SCALAR"
    }
  ],
  "asset": {
    "extras": {
      "author": "Anthony Yanez (https://sketchfab.com/paulyanez)",
      "license": "CC-BY-4.0 (http://creativecommons.org/licenses/by/4.0/)",
      "source": "https://sketchfab.com/models/30e08be02db047a39882403e48694c58",
      "title": "JellyFish Net (Spongebob)"
    },
    "generator": "Sketchfab-3.46.1",
    "version": "2.0"
  },
  "bufferViews": [
    {
      "buffer": 0,
      "byteLength": 59316,
      "byteOffset": 0,
      "name": "floatBufferViews",
      "target": 34963
    },
    {
      "buffer": 0,
      "byteLength": 25720,
      "byteOffset": 59316,
      "byteStride": 8,
      "name": "floatBufferViews",
      "target": 34962
    },
    {
      "buffer": 0,
      "byteLength": 77160,
      "byteOffset": 85036,
      "byteStride": 12,
      "name": "floatBufferViews",
      "target": 34962
    },
    {
      "buffer": 0,
      "byteLength": 51440,
      "byteOffset": 162196,
      "byteStride": 16,
      "name": "floatBufferViews",
      "target": 34962
    }
  ],
  "buffers": [
    {
      "byteLength": 213636,
      "uri": "scene.bin"
    }
  ],
  "materials": [
    {
      "doubleSided": true,
      "emissiveFactor": [
        0,
        0,
        0
      ],
      "name": "02_-_Default",
      "pbrMetallicRoughness": {
        "baseColorFactor": [
          0.494118,
          0.32549,
          0,
          1
        ],
        "metallicFactor": 0.5,
        "roughnessFactor": 0.55316310980000005
      }
    },
    {
      "doubleSided": true,
      "emissiveFactor": [
        0,
        0,
        0
      ],
      "name": "03_-_Default",
      "pbrMetallicRoughness": {
        "baseColorFactor": [
          1,
          1,
          1,
          1
        ],
        "metallicFactor": 0.64195884150000004,
        "roughnessFactor": 0.58974847559999999
      }
    }
  ],
  "meshes": [
    {
      "name": "Jelly Fish Net_02 - Default_0",
      "primitives": [
        {
          "attributes": {
            "NORMAL": 1,
            "POSITION": 0,
            "TANGENT": 2,
            "TEXCOORD_0": 3
          },
          "indices": 4,
          "material": 0,
          "mode": 4
        }
      ]
    },
    {
      "name": "Jelly Fish Net_03 - Default_0",
      "primitives": [
        {
          "attributes": {
            "NORMAL": 6,
            "POSITION": 5,
            "TANGENT": 7,
            "TEXCOORD_0": 8
          },
          "indices": 9,
          "material": 1,
          "mode": 4
        }
      ]
    }
  ],
  "nodes": [
    {
      "children": [
        1
      ],
      "name": "RootNode (gltf orientation matrix)",
      "rotation": [
        -0.70710678118654746,
        -0,
        -0,
        0.70710678118654757
      ]
    },
    {
      "children": [
        2
      ],
      "name": "RootNode (model correction matrix)"
    },
    {
      "children": [
        3
      ],
      "matrix": [
        1,
        0,
        0,
        0,
        0,
        0,
        1,
        0,
        0,
        -1,
        0,
        0,
        0,
        0,
        0,
        1
      ],
      "name": "d0392e5e158042298d8791ff135794d8.fbx"
    },
    {
      "children": [
        4
      ],
      "name": "RootNode"
    },
    {
      "children": [
        5,
        6
      ],
      "matrix": [
        1,
        0,
        0,
        0,
        0,
        1.0492354697124335,
        -0.18500831043387247,
        0,
        0,
        0.17364798469131149,
        0.98480778703899674,
        0,
        0,
        192.31460571289062,
        -28.713409423828125,
        1
      ],
      "name": "Jelly Fish Net"
    },
    {
      "mesh": 0,
      "name": "Jelly Fish Net_02 - Default_0"
    },
    {
      "mesh": 1,
      "name": "Jelly Fish Net_03 - Default_0"
    }
  ],
  "scene": 0,
  "scenes": [
    {
      "name": "OSG_Scene",
      "nodes": [
        0
      ]
    }
  ]
}

